<?xml version="1.0" standalone="no"?>
<!DOCTYPE svg PUBLIC "-//W3C//DTD SVG 20010904//EN"
 "http://www.w3.org/TR/2001/REC-SVG-20010904/DTD/svg10.dtd">
<svg version="1.0" xmlns="http://www.w3.org/2000/svg"
 width="1024.000000pt" height="1024.000000pt" viewBox="0 0 1024.000000 1024.000000"
 preserveAspectRatio="xMidYMid meet">
<metadata>
Created by potrace 1.11, written by Peter Selinger 2001-2013
</metadata>
<g transform="translate(0.000000,1024.000000) scale(0.100000,-0.100000)"
fill="#000000" stroke="none">
<path d="M9865 10228 c-22 -5 -98 -27 -169 -49 -70 -22 -136 -42 -145 -44 -9
-2 -171 -52 -361 -110 -313 -96 -478 -147 -850 -267 -69 -22 -152 -48 -185
-59 -140 -44 -646 -210 -975 -320 -195 -66 -362 -121 -370 -123 -8 -2 -67 -23
-130 -46 -106 -39 -150 -54 -190 -65 -34 -10 -206 -71 -215 -76 -5 -4 -50 -19
-100 -34 -49 -16 -95 -32 -101 -37 -10 -7 -22 22 -39 97 -27 114 -72 271 -90
311 -43 91 -124 159 -213 179 -18 4 -60 7 -93 7 -65 1 -91 -11 -364 -156 -66
-35 -160 -85 -210 -111 -49 -26 -116 -63 -148 -81 -32 -19 -60 -34 -61 -34 -2
0 -76 -40 -165 -90 -89 -49 -165 -90 -168 -90 -4 0 -14 -6 -22 -14 -9 -7 -41
-26 -71 -42 -30 -15 -63 -35 -72 -43 -10 -8 -18 -11 -18 -7 0 4 -12 -1 -27
-12 -16 -11 -46 -30 -68 -43 -84 -48 -147 -84 -163 -94 -25 -15 -134 -78 -155
-90 -10 -5 -99 -59 -198 -120 -100 -60 -196 -119 -215 -130 -87 -51 -439 -280
-442 -287 -2 -4 -7 -8 -12 -8 -23 0 -787 -534 -940 -657 -8 -7 -67 -53 -130
-103 -63 -50 -122 -96 -130 -103 -8 -7 -37 -30 -65 -52 -27 -22 -52 -42 -55
-45 -3 -3 -27 -23 -55 -45 -27 -21 -52 -42 -55 -45 -3 -4 -45 -42 -95 -85 -49
-44 -117 -105 -150 -136 -33 -31 -96 -91 -140 -133 -44 -42 -83 -76 -88 -76
-22 0 -195 -196 -304 -344 -28 -39 -57 -76 -62 -83 -6 -7 -11 -15 -11 -18 0
-3 -5 -11 -10 -18 -59 -67 -320 -538 -320 -576 0 -6 -4 -11 -10 -11 -5 0 -10
-5 -10 -11 0 -5 -11 -34 -23 -62 -13 -29 -45 -106 -72 -172 -26 -66 -56 -142
-68 -170 -43 -106 -120 -358 -162 -530 -39 -161 -72 -360 -91 -545 -13 -129
-7 -480 11 -610 3 -19 7 -66 10 -104 3 -38 7 -71 9 -75 2 -3 7 -33 11 -66 10
-93 40 -243 74 -370 12 -44 23 -84 25 -90 1 -5 10 -37 20 -70 10 -33 19 -64
20 -70 4 -19 17 -60 26 -80 5 -11 21 -51 35 -90 43 -112 133 -314 173 -385 19
-36 36 -67 36 -70 0 -3 40 -70 89 -150 187 -304 389 -548 693 -841 133 -127
391 -339 414 -339 5 0 10 -4 10 -8 0 -9 184 -132 198 -132 5 0 17 -9 27 -20
10 -11 24 -20 31 -20 7 0 14 -3 16 -7 2 -5 19 -16 38 -27 95 -51 299 -152 325
-163 17 -6 75 -30 130 -53 139 -58 378 -135 513 -165 95 -21 266 -55 300 -59
23 -4 60 -8 82 -11 76 -11 105 -14 180 -21 41 -4 89 -8 105 -10 49 -6 467 -6
500 -1 17 3 62 8 100 12 39 3 95 10 125 15 30 5 73 12 95 15 43 7 286 63 400
94 221 59 589 200 833 320 56 28 105 51 109 51 3 0 22 10 42 22 20 13 38 23
41 23 3 0 16 8 30 16 14 9 59 35 100 59 89 51 263 161 270 171 3 4 30 24 60
45 30 20 57 40 60 43 3 4 39 34 80 68 93 76 200 178 200 191 0 5 28 39 63 74
257 267 463 505 680 788 46 60 124 157 134 168 7 7 13 17 13 21 0 5 10 19 23
33 12 13 35 44 52 69 16 24 33 46 36 49 3 3 72 100 153 215 179 257 150 215
256 375 49 74 93 140 97 145 14 18 99 149 106 165 4 8 34 56 67 105 110 169
397 648 571 955 55 96 104 182 109 190 5 8 17 31 27 50 9 19 19 37 22 40 7 6
9 10 86 155 32 61 61 112 64 115 3 3 19 30 35 60 26 51 79 151 154 290 16 30
58 111 94 180 58 113 70 139 84 190 3 8 5 44 5 80 1 67 -28 150 -68 195 -30
33 -114 85 -157 96 -23 5 -52 14 -66 19 -14 5 -47 14 -75 20 -27 5 -88 21
-135 34 -93 26 -97 31 -70 101 6 17 11 30 10 30 -1 0 4 14 10 30 12 28 86 241
201 575 88 254 437 1311 444 1343 2 9 7 22 10 27 3 5 8 18 10 29 2 10 29 97
60 192 31 96 58 179 59 184 1 6 23 75 49 155 42 133 124 398 198 645 17 55 34
111 39 125 5 14 21 66 35 115 15 50 41 135 58 190 36 117 38 185 7 267 -49
131 -205 215 -345 186z m-5750 -3842 c33 -4 71 -9 85 -11 14 -2 45 -6 70 -10
466 -67 947 -306 1309 -649 129 -124 187 -186 282 -306 168 -211 291 -427 382
-671 37 -98 94 -293 101 -345 2 -16 11 -69 20 -119 9 -49 20 -133 24 -185 9
-95 8 -487 -1 -526 -3 -11 -8 -47 -11 -80 -4 -32 -8 -66 -11 -74 -2 -8 -6 -31
-9 -50 -8 -51 -34 -170 -46 -210 -6 -19 -13 -46 -16 -59 -7 -34 -83 -240 -104
-281 -10 -19 -26 -53 -36 -75 -70 -149 -214 -375 -301 -473 -13 -14 -23 -28
-23 -33 0 -13 -342 -350 -406 -400 -165 -129 -363 -251 -534 -328 -70 -31
-247 -98 -280 -106 -8 -2 -46 -13 -83 -24 -38 -11 -81 -22 -95 -25 -15 -2 -52
-9 -82 -16 -193 -38 -528 -57 -713 -39 -40 4 -103 10 -142 14 -38 3 -78 9 -87
11 -10 3 -30 7 -45 10 -127 21 -289 65 -422 114 -74 27 -239 100 -271 120 -8
5 -37 21 -65 36 -290 154 -647 477 -868 784 -103 144 -236 394 -296 557 -65
176 -122 413 -136 563 -3 36 -8 73 -11 83 -8 25 -7 452 0 517 8 64 33 233 41
270 2 14 7 39 11 55 24 117 91 322 142 434 14 31 26 58 27 61 2 11 69 138 102
195 58 97 171 260 215 310 7 8 22 27 33 42 25 35 322 329 366 363 18 14 46 37
63 51 97 80 371 248 466 285 25 9 50 21 55 25 45 34 402 144 525 163 19 2 62
9 94 15 33 6 96 13 140 17 45 3 82 7 83 8 6 5 406 -2 458 -8z"/>
<path d="M3125 5114 c-144 -28 -191 -46 -280 -109 -33 -24 -79 -63 -102 -87
-53 -55 -123 -157 -123 -177 0 -9 -6 -25 -14 -36 -37 -55 -53 -253 -28 -360
43 -184 178 -354 347 -435 96 -47 153 -61 262 -65 210 -7 385 83 533 275 80
103 110 189 116 325 8 212 -67 383 -229 524 -107 91 -235 142 -372 146 -49 1
-99 1 -110 -1z"/>
<path d="M4043 3181 c-84 -31 -137 -82 -175 -167 -28 -65 -29 -178 -3 -254 28
-77 101 -148 180 -175 133 -45 298 -2 367 95 106 147 73 377 -67 466 -80 51
-216 67 -302 35z"/>
</g>
</svg>
